<?xml version="1.0" standalone="no"?><!DOCTYPE svg PUBLIC "-//W3C//DTD SVG 1.1//EN" "http://www.w3.org/Graphics/SVG/1.1/DTD/svg11.dtd"><svg t="1618934362548" class="icon" viewBox="0 0 1024 1024" version="1.1" xmlns="http://www.w3.org/2000/svg" p-id="2426" xmlns:xlink="http://www.w3.org/1999/xlink" width="200" height="200"><defs><style type="text/css"></style></defs><path d="M226.133333 221.866667a46.933333 46.933333 0 0 1 46.933334-46.933334h119.466666v59.733334H285.866667v554.666666h452.266666v-554.666666h-106.666666V174.933333h119.466666a46.933333 46.933333 0 0 1 46.933334 46.933334v580.266666a46.933333 46.933333 0 0 1-46.933334 46.933334H273.066667a46.933333 46.933333 0 0 1-46.933334-46.933334V221.866667z" fill="#2B2F36" p-id="2427"></path><path d="M396.8 473.685333a29.866667 29.866667 0 0 1 29.866667-29.866666h170.666666a29.866667 29.866667 0 1 1 0 59.733333h-170.666666a29.866667 29.866667 0 0 1-29.866667-29.866667zM396.8 600.064a29.866667 29.866667 0 0 1 29.866667-29.866667h170.666666a29.866667 29.866667 0 1 1 0 59.733334h-170.666666a29.866667 29.866667 0 0 1-29.866667-29.866667z" fill="#2B2F36" p-id="2428"></path><path d="M512 149.333333a21.333333 21.333333 0 0 0-21.333333 21.333334v33.28a30.72 30.72 0 0 1-30.72 30.72H422.4v42.666666h179.2v-42.666666h-37.546667a30.72 30.72 0 0 1-30.72-30.72V170.666667a21.333333 21.333333 0 0 0-21.333333-21.333334z m-81.066667 21.333334a81.066667 81.066667 0 0 1 162.133334 0v4.266666h68.266666v115.2a46.933333 46.933333 0 0 1-46.933333 46.933334H409.6a46.933333 46.933333 0 0 1-46.933333-46.933334V174.933333h68.266666V170.666667z" fill="#035DFF" p-id="2429"></path></svg>